PathFileType	4	(X/Y/Z)	RBDS002\RBDS002runT25.trc
DataRate	CameraRate	NumFrames	NumMarkers	Units	OrigDataRate	OrigDataStartFrame	OrigNumFrames
150.000000	150.000000	4	33	mm	150.000000	562	4500
Frame#	Time	L.ASIS			L.Heel.Bottom			L.Heel.Lateral			L.Heel.Top			L.Iliac.Crest			L.MT1			L.MT5			L.PSIS			L.Shank.Bottom.Lateral			L.Shank.Bottom.Medial			L.Shank.Top.Lateral			L.Shank.Top.Medial			L.Thigh.Bottom.Lateral			L.Thigh.Bottom.Medial			L.Thigh.Top.Lateral			L.Thigh.Top.Medial			R.ASIS			R.ASY			R.Heel.Bottom			R.Heel.Lateral			R.Heel.Top			R.Iliac.Crest			R.MT1			R.MT5			R.PSIS			R.Shank.Bottom.Lateral			R.Shank.Bottom.Medial			R.Shank.Top.Lateral			R.Shank.Top.Medial			R.Thigh.Bottom.Lateral			R.Thigh.Bottom.Medial			R.Thigh.Top.Lateral			R.Thigh.Top.Medial			
		X1	Y1	Z1	X2	Y2	Z2	X3	Y3	Z3	X4	Y4	Z4	X5	Y5	Z5	X6	Y6	Z6	X7	Y7	Z7	X8	Y8	Z8	X9	Y9	Z9	X10	Y10	Z10	X11	Y11	Z11	X12	Y12	Z12	X13	Y13	Z13	X14	Y14	Z14	X15	Y15	Z15	X16	Y16	Z16	X17	Y17	Z17	X18	Y18	Z18	X19	Y19	Z19	X20	Y20	Z20	X21	Y21	Z21	X22	Y22	Z22	X23	Y23	Z23	X24	Y24	Z24	X25	Y25	Z25	X26	Y26	Z26	X27	Y27	Z27	X28	Y28	Z28	X29	Y29	Z29	X30	Y30	Z30	X31	Y31	Z31	X32	Y32	Z32	X33	Y33	Z33	

563	3.746666666666667	2285.314739718081	1064.446040728331	890.9838972654834	2358.709898452732	50.4184015977257	948.0746119371113	2381.152326939226	66.78293451426406	898.1836106308735	2356.176097957745	101.1477145571073	943.2221102868662	2182.110554319097	1144.416519411938	847.8784642895091	2578.564336933905	124.2941032729084	963.0670088185454	2539.697703290146	97.71265960298447	856.4770903647468	2102.011549324993	1090.001213398262	960.2636156448349	2397.293319606008	206.0073893171838	880.2505115409874	2360.100288471801	204.9209874642307	916.032053433417	2382.093630539569	283.2138018057379	861.4786850088254	2344.200578977249	286.5593502969417	898.9812156917307	2350.502422129937	645.2407758852019	845.3799611605759	2299.604708197212	618.5277646700548	890.5762977742442	2286.932904148287	734.8551611068399	830.2354658474305	2240.244292130518	711.2527950305649	874.3183611568684	2291.67330289912	1041.08630904721	1109.707485723128	1856.87610283992	117.0759971332473	1047.195007070886	1695.065220796253	229.6034657552223	1044.629251313699	1718.998332019277	216.5903674518078	1083.943435045275	1741.536089035635	251.0229990995149	1048.119198264109	2230.730971426791	1131.980225915756	1156.164115185998	1844.852709379785	63.34322726254107	995.9254590976044	1816.740430395513	75.732755814697	1106.743195145504	2109.100912606857	1087.723822616844	1050.00288740576	1832.386482013305	278.6033838410561	1108.400269108185	1803.065691812706	306.037739665248	1071.009033808181	1872.120743387794	347.4357699678926	1125.538396126716	1843.925516003143	373.2270253277289	1087.221792445699	2083.498975293632	651.4010093863968	1144.379932711109	2037.240712473358	671.9420956904369	1089.954699809075	2101.545994219874	758.3959045837246	1165.923047669833	2057.932062904466	777.4922849886027	1113.967898155234	
564	3.753333333333333	2286.456406836731	1066.683049586926	890.9984516127615	2372.848374128534	49.77955939734625	947.4459901516306	2396.291041322604	66.48274079667462	898.1507685846701	2368.86602613767	100.3747306487398	942.1409879248554	2182.390496844972	1147.170647802589	848.0239403047306	2589.698251086413	130.6455070047724	968.7119400773314	2555.168715849216	101.9770012670261	861.1349031255685	2103.093301140368	1092.093438221517	960.1487333545631	2407.64894282053	206.5494975819628	880.4713868272721	2369.93166831385	204.4474759536729	915.624037031177	2390.450340982349	283.2032117075771	861.2651983097953	2351.780016749551	285.5499367534439	898.0797772267471	2349.556765693375	645.8971278037982	844.5666853724398	2298.618565590617	619.7044877536057	890.0136627075844	2286.634620092787	736.005251880683	829.3758928515265	2239.854929570161	712.811381184264	873.5752000203095	2292.513515053059	1042.983308107512	1109.590775020567	1848.236158129059	120.5468854275342	1048.326092402447	1691.85054326075	240.7277272080132	1045.796736564337	1715.113346358397	226.410313809226	1085.054410742108	1739.327207572654	259.8453430675171	1049.384571056108	2231.41445059591	1134.789045130591	1155.693979880595	1833.903751685692	66.91319536707967	996.9128666327019	1805.858852681128	79.93322663864878	1107.614748241276	2110.070702330037	1089.669470334323	1049.849187970045	1828.017338056785	284.2293911592856	1109.426782818267	1799.419703102892	311.68086970772	1071.510053837191	1868.68518869637	352.6529858296703	1126.000043468091	1841.081563726682	378.4654644128497	1087.289983775098	2082.724623861443	653.9294395736719	1143.843960737374	2037.592739416479	674.5273782982665	1088.466097426666	2101.004557338668	760.9445804751483	1165.257175902088	2058.789400407797	780.045950684569	1112.211903141081	
565	3.76	2287.521217372138	1068.372130085918	891.1451103410461	2384.721872274121	49.37523868770584	946.8683062325462	2409.22583391134	66.3482175068272	898.1840044761639	2379.501326796999	99.80972989197144	941.0613165955626	2182.81149125204	1149.30806601902	848.0853698579675	2598.576634858811	136.3613880594164	974.2723846307392	2568.354451187182	105.8049402371001	865.831663987945	2104.085394632805	1093.758673236195	959.9244201541844	2416.382792111748	207.1785757003368	880.6975250916714	2378.181331804406	204.2029690363955	915.2304590246276	2397.581682058118	283.3284804220151	861.0931078304957	2358.212354669681	284.804651019942	897.2401096652603	2348.927961058961	646.3037416101232	843.7268947085638	2297.993834647473	620.6062815358865	889.454158766722	2286.60482346906	736.8633287042653	828.5400389103949	2239.770569294278	714.0593866432121	872.887070606404	2293.19606696137	1044.508440934595	1109.583119957053	1840.078408298441	124.3937294838591	1049.571440114614	1689.136821765141	251.5337331063221	1046.942035894101	1711.67832170659	236.032539960783	1086.174758863441	1737.460028420659	268.4390966630358	1050.663490210736	2231.736616394295	1137.082333527862	1155.355091794268	1823.70882270921	70.82690973502402	998.0978872489551	1795.624635829142	84.45963290942601	1108.545885369876	2110.865489197849	1091.233787497282	1049.596575508429	1824.227656896685	289.6656167397239	1110.419195966547	1796.337610577485	317.2366654078987	1072.114435797382	1866.0191249244	357.5353383614625	1126.470175007136	1838.974113931277	383.4798309259365	1087.473142742205	2082.806127731773	655.588693289191	1143.198252913807	2038.621731560709	676.1182341441216	1086.99739813763	2101.016511014016	762.6618226882604	1164.496502150904	2060.017243465805	781.656717531875	1110.502365037565	
566	3.766666666666667	2288.506695141786	1069.533043274591	891.4065175205227	2394.250335042087	49.0188715923389	946.4107886684814	2419.82706431346	66.17740716454557	898.3249612016459	2388.005336655368	99.28277376052273	940.0522733407479	2183.393892936335	1150.785384331252	848.0287948931839	2605.248608230634	141.250646500442	979.533637264199	2579.123366155462	108.9685432719141	870.4067162402633	2104.979929262631	1094.973761951536	959.5934529437958	2423.432697967997	207.758035032258	880.9295317984853	2384.786999463751	204.0612657934656	914.868300773272	2403.425777461899	283.4823730613899	860.9746710955721	2363.441190602582	284.2300496515847	896.4924428024309	2348.631814825851	646.494027282511	842.9230428386289	2297.72153596112	621.2296604910497	888.9092594521608	2286.837880000808	737.4451767054964	827.7698194641131	2239.966218302256	714.9810691837844	872.2544999694696	2293.715517129456	1045.641226076771	1109.668867412402	1832.491171588796	128.5850963993829	1050.943458391068	1686.84426210313	261.9193371543113	1047.970769427409	1708.620913015114	245.3874939293515	1087.225887781602	1735.857779121216	276.7534933697976	1051.876094133008	2231.746863846588	1138.81619828596	1155.139716386127	1814.366857840617	75.03622033601707	999.4943564375897	1786.123097472408	89.29877440932833	1109.549947617078	2111.486871979857	1092.384809415244	1049.248338881406	1821.012011515109	294.9236321614599	1111.361790207257	1793.820737288885	322.7192957185451	1072.794302005725	1864.101364239203	362.0887298014528	1126.951275051835	1837.598062538568	388.2774892115815	1087.759374301774	2083.772390650519	656.3334620988954	1142.498213430417	2040.330188248859	676.6754450509865	1085.621040071861	2101.629723806457	763.500723886252	1163.687167284497	2061.610306137541	782.2877549699621	1108.913767439812	
